# xmcd
# 
# Track frame offsets:
#     150
#     13435
#     27924
#     37967
#     51292
#     61588
#     72194
#     84602
#     95294
#     107244
#     117884
#     131054
#     142756
#     155179
#     168144
#     181879
#     195102
#     208232
#     222719
#     235476
#     247049
#     258719
#     269811
#     281741
#     295864
#     310259
#     323126
# 
# Disc length: 4435
# 
# Revision: 2
# Processed by: cddbd v1.5.2PL0 Copyright (c) Steve Scherf et al.
# Submitted via: fre:ac v1.0.31
# 
DISCID=9f11511b
DTITLE=Howlin' Wolf - Smokestack Lightning - The Complete Chess Masters 1951 - 1960  Disc 2
DYEAR=2011
DGENRE=Blues
TTITLE0=I'm Not Joking
TTITLE1=Mama Died and Left Me
TTITLE2=All Night Boogie (All Night Long)
TTITLE3=I Love My Baby
TTITLE4=Highway My Friend
TTITLE5=Hold Your Money
TTITLE6=Streamline Woman
TTITLE7=California Blues #2
TTITLE8=Stay Here 'Til My Baby Comes Back
TTITLE9=Crazy About You Baby
TTITLE10=No Place to Go (You Gonna Wreck My Life)
TTITLE11=You Gonna Wreck My Life (No Place to Go) (alt)
TTITLE12=Neighbors
TTITLE13=I'm The Wolf
TTITLE14=Rockin' Daddy
TTITLE15=Baby How Long
TTITLE16=Evil (Is Goin' On)
TTITLE17=I'll Be Around
TTITLE18=Forty Four
TTITLE19=Who Will Be Next
TTITLE20=I Have A Little Girl
TTITLE21=Come To Me Baby
TTITLE22=Don't Mess With My Baby
TTITLE23=Smokestack Lightning
TTITLE24=You Can't Be Beat
TTITLE25=I Asked For Water (She Gave Me Gasoline)
TTITLE26=So Glad
EXTD=
EXTT0=
EXTT1=
EXTT2=
EXTT3=
EXTT4=
EXTT5=
EXTT6=
EXTT7=
EXTT8=
EXTT9=
EXTT10=
EXTT11=
EXTT12=
EXTT13=
EXTT14=
EXTT15=
EXTT16=
EXTT17=
EXTT18=
EXTT19=
EXTT20=
EXTT21=
EXTT22=
EXTT23=
EXTT24=
EXTT25=
EXTT26=
PLAYORDER=
